<svg width="61" height="50" viewBox="0 0 61 50" fill="none" xmlns="http://www.w3.org/2000/svg">
<path d="M59.3645 34.4761H57.8645V24.1306C57.8645 22.9151 57.3864 21.7476 56.5426 20.8862L47.177 11.3255C46.3333 10.4642 45.1895 9.97607 43.9989 9.97607H39.8645V5.38232C39.8645 2.84619 37.8489 0.788574 35.3645 0.788574H11.3645C8.88013 0.788574 6.8645 2.84619 6.8645 5.38232V9.97607H1.6145C1.202 9.97607 0.864502 10.3206 0.864502 10.7417V12.2729C0.864502 12.694 1.202 13.0386 1.6145 13.0386H27.1145C27.527 13.0386 27.8645 13.3831 27.8645 13.8042V15.3354C27.8645 15.7565 27.527 16.1011 27.1145 16.1011H4.6145C4.202 16.1011 3.8645 16.4456 3.8645 16.8667V18.3979C3.8645 18.819 4.202 19.1636 4.6145 19.1636H24.1145C24.527 19.1636 24.8645 19.5081 24.8645 19.9292V21.4604C24.8645 21.8815 24.527 22.2261 24.1145 22.2261H1.6145C1.202 22.2261 0.864502 22.5706 0.864502 22.9917V24.5229C0.864502 24.944 1.202 25.2886 1.6145 25.2886H21.1145C21.527 25.2886 21.8645 25.6331 21.8645 26.0542V27.5854C21.8645 28.0065 21.527 28.3511 21.1145 28.3511H6.8645V40.6011C6.8645 45.6733 10.8958 49.7886 15.8645 49.7886C20.8333 49.7886 24.8645 45.6733 24.8645 40.6011H36.8645C36.8645 45.6733 40.8958 49.7886 45.8645 49.7886C50.8333 49.7886 54.8645 45.6733 54.8645 40.6011H59.3645C60.1895 40.6011 60.8645 39.912 60.8645 39.0698V36.0073C60.8645 35.1651 60.1895 34.4761 59.3645 34.4761ZM15.8645 45.1948C13.3801 45.1948 11.3645 43.1372 11.3645 40.6011C11.3645 38.0649 13.3801 36.0073 15.8645 36.0073C18.3489 36.0073 20.3645 38.0649 20.3645 40.6011C20.3645 43.1372 18.3489 45.1948 15.8645 45.1948ZM45.8645 45.1948C43.3801 45.1948 41.3645 43.1372 41.3645 40.6011C41.3645 38.0649 43.3801 36.0073 45.8645 36.0073C48.3489 36.0073 50.3645 38.0649 50.3645 40.6011C50.3645 43.1372 48.3489 45.1948 45.8645 45.1948ZM53.3645 25.2886H39.8645V14.5698H43.9989L53.3645 24.1306V25.2886Z" fill="#FBF6EC"/>
</svg>
