<svg width="63" height="60" viewBox="0 0 63 60" fill="none" xmlns="http://www.w3.org/2000/svg">
<path d="M0.729004 56.9773C0.729004 58.1269 1.6615 59.0594 2.81194 59.0594H60.9171C62.0667 59.0594 63 58.1269 63 56.9773V52.4541H0.729004V56.9773Z" fill="#FBF6EC"/>
<path d="M60.9163 11.2943H41.4498C41.5308 10.7891 41.5744 10.2715 41.5744 9.743C41.5744 4.37375 37.2201 0.00549316 31.868 0.00549316C26.5159 0.00549316 22.1616 4.37375 22.1616 9.743C22.1616 10.2715 22.2052 10.7884 22.2862 11.2943H2.81194C1.6615 11.2943 0.729004 12.2268 0.729004 13.3772V49.1235H22.2838C22.4146 43.1222 26.7618 40.1223 31.868 40.1223C36.9742 40.1223 41.3222 43.1229 41.4529 49.1235H62.9992V13.3765C62.9992 12.2268 62.0667 11.2935 60.9163 11.2935V11.2943ZM31.868 3.12912C35.4976 3.12912 38.4515 6.09552 38.4515 9.743C38.4515 13.3905 35.4984 16.3577 31.868 16.3577C28.2376 16.3577 25.2853 13.3905 25.2853 9.743C25.2853 6.0963 28.2384 3.12912 31.868 3.12912ZM31.868 36.9255C28.3396 36.9255 25.4791 34.0634 25.4791 30.5327C25.4791 27.002 28.3396 24.1399 31.868 24.1399C35.3964 24.1399 38.2577 27.002 38.2577 30.5327C38.2577 34.0634 35.3972 36.9255 31.868 36.9255Z" fill="#FBF6EC"/>
<path d="M31.868 14.4607C34.4592 14.4607 36.5679 12.3451 36.5679 9.74527C36.5679 7.14549 34.4592 5.03064 31.868 5.03064C29.2768 5.03064 27.1689 7.14549 27.1689 9.74527C27.1689 12.3458 29.2776 14.4607 31.868 14.4607ZM31.6602 6.29005C31.7894 6.59051 31.8641 6.92132 31.8641 7.27003C31.8641 8.63842 30.758 9.74683 29.3959 9.74683C29.0518 9.74683 28.7257 9.67444 28.4284 9.54756C28.5272 7.79777 29.9205 6.39436 31.6602 6.29005Z" fill="#FBF6EC"/>
</svg>
