<svg width="49" height="57" viewBox="0 0 49 57" fill="none" xmlns="http://www.w3.org/2000/svg">
<path fill-rule="evenodd" clip-rule="evenodd" d="M0.182617 5.99936C0.182617 2.88819 2.70471 0.366089 5.81588 0.366089H36.6377L49.0043 12.7326V51.0655C49.0043 54.1766 46.4821 56.6988 43.371 56.6988H5.81588C2.70471 56.6988 0.182617 54.1766 0.182617 51.0655V5.99936ZM22.7157 15.3881H11.4492V19.1436H22.7157V15.3881ZM37.7377 26.6547H11.4492V30.4102H37.7377V26.6547ZM20.1045 41.3305C18.5878 41.7379 17.4034 42.8961 16.986 44.1482L13.4232 42.9607C14.2576 40.4573 16.4531 38.4229 19.1301 37.7037C21.7857 36.9903 24.8134 37.5879 27.435 39.9995C28.2224 39.7678 29.0026 39.6375 29.7741 39.5962C31.7971 39.4876 33.6152 39.998 35.1738 40.6473C36.3185 41.1243 37.4283 41.7274 38.3615 42.2344C38.6593 42.3963 38.9399 42.5487 39.1971 42.6839C40.4113 43.3212 41.0794 43.5545 41.4932 43.5545V47.31C40.029 47.31 38.5846 46.6039 37.4516 46.0091C37.1019 45.8254 36.7635 45.6418 36.4297 45.4604C35.5385 44.9763 34.6792 44.5099 33.7294 44.114C32.4713 43.5898 31.238 43.2784 29.975 43.3464C29.7914 43.3562 29.604 43.3742 29.4127 43.4016L29.4171 43.4516C29.5175 44.6714 29.014 45.6744 28.3656 46.3948C27.1692 47.7242 25.2201 48.4216 23.7557 48.6879C22.9928 48.8265 22.1723 48.8847 21.4498 48.7791C21.0962 48.7273 20.6402 48.6188 20.2106 48.363C19.7538 48.0911 19.2124 47.571 19.0737 46.7384C18.9446 45.964 19.2361 45.3256 19.4908 44.9331C19.7535 44.5283 20.1073 44.1783 20.4728 43.8759C21.1841 43.2867 22.2205 42.6498 23.6052 41.9494L23.7061 41.8761C22.3982 41.1119 21.142 41.0518 20.1045 41.3305Z" fill="#FBF6EC"/>
</svg>
