<svg width="178" height="61" viewBox="0 0 178 61" fill="none" xmlns="http://www.w3.org/2000/svg">
<path d="M175.84 33.6H143.03V48.58H175.84V33.6Z" fill="white"/>
<path d="M8.30005 0.600002H4.57764e-05V38.34H20.72V32.2H8.30005V0.600002Z" fill="#1F5D52"/>
<path d="M34.75 0.600002H26.45V38.34H34.75V0.600002Z" fill="#1F5D52"/>
<path d="M40.89 38.34H49.19V22.59H61.06V16.4H49.19V7.01H65.05V0.600002H40.89V38.34Z" fill="#1F5D52"/>
<path d="M70.27 38.34H92.93V31.93H78.57V22.21H91.2701V16.07H78.57V7.01H92.93V0.600002H70.27V38.34Z" fill="#1F5D52"/>
<path d="M131.35 41.27L143.65 22.84H134.3L126.82 34.49L119.03 23.1L119.78 22.86C122.37 22.04 124.37 20.69 125.7 18.83C127.08 16.91 127.78 14.69 127.78 12.24C127.78 10.06 127.27 8.06 126.25 6.3C125.24 4.54 123.69 3.14 121.65 2.13C119.58 1.1 117.03 0.580002 114.07 0.580002H98.75V38.32H107.05V23.63H109.79L121.72 41.21L109.61 60.42H118.96L126.25 47.97L134.53 60.42H144.14L131.89 42.04L131.36 41.25L131.35 41.27ZM119.31 12.65C119.31 14.36 118.81 15.71 117.83 16.68C116.85 17.64 115.4 18.12 113.51 18.12H107.04V7.29H113.51C115.4 7.29 116.85 7.78 117.83 8.73C118.81 9.69 119.31 11.01 119.31 12.65Z" fill="#1F5D52"/>
<path d="M168.67 36.85H166.49V45.32H168.67C170.02 45.32 171.05 44.95 171.78 44.2C172.51 43.46 172.87 42.43 172.87 41.12C172.87 39.81 172.51 38.75 171.78 37.99C171.05 37.23 170.02 36.85 168.67 36.85Z" fill="#82B0D6"/>
<path d="M173.62 24.76H149.95C148.59 24.76 147.32 25.45 146.58 26.59L140.64 35.78H140.61L136.97 41.17L147.81 57.16C148.54 58.32 149.82 59.02 151.2 59.02H173.61C175.82 59.02 177.62 57.23 177.62 55.01V28.76C177.62 26.55 175.83 24.75 173.61 24.75L173.62 24.76ZM146.7 47.05C146.42 47.33 146.07 47.47 145.64 47.47C145.21 47.47 144.84 47.33 144.56 47.05C144.28 46.77 144.14 46.43 144.14 46.04C144.14 45.65 144.28 45.29 144.56 45.01C144.84 44.73 145.2 44.59 145.64 44.59C146.08 44.59 146.42 44.73 146.7 45.01C146.98 45.29 147.12 45.63 147.12 46.04C147.12 46.45 146.98 46.77 146.7 47.05ZM162.19 47.34H159.78V39.26L156.4 47.34H154.51L151.13 39.26V47.34H148.72V34.83H151.47L155.46 44.2L159.45 34.83H162.2V47.34H162.19ZM174.52 44.41C173.97 45.34 173.21 46.06 172.22 46.57C171.24 47.08 170.08 47.34 168.74 47.34H164.07V34.83H168.74C170.07 34.83 171.23 35.09 172.22 35.61C173.2 36.13 173.97 36.86 174.52 37.8C175.07 38.74 175.34 39.85 175.34 41.13C175.34 42.41 175.07 43.49 174.52 44.42V44.41Z" fill="#82B0D6"/>
</svg>
